<svg id="Layer_1" data-name="Layer 1" xmlns="http://www.w3.org/2000/svg" viewBox="0 0 360 360"><defs><style>.cls-1{fill:none;stroke:#4b5fab;stroke-linecap:round;stroke-linejoin:round;stroke-width:10px;}</style></defs><title>icons for site</title><line class="cls-1" x1="45.3" y1="69.55" x2="309.57" y2="69.55"/><path class="cls-1" d="M309.57,69.55a12.33,12.33,0,0,1,12.28,12.29"/><line class="cls-1" x1="321.85" y1="81.84" x2="321.85" y2="289.74"/><path class="cls-1" d="M321.85,289.74a12.34,12.34,0,0,1-12.28,12.32"/><line class="cls-1" x1="309.57" y1="302.06" x2="45.3" y2="302.06"/><path class="cls-1" d="M45.3,302.06A12.32,12.32,0,0,1,33,289.74"/><line class="cls-1" x1="33.03" y1="289.74" x2="33.03" y2="81.84"/><path class="cls-1" d="M33,81.84A12.31,12.31,0,0,1,45.3,69.55"/><line class="cls-1" x1="90.61" y1="41.19" x2="90.61" y2="91.36"/><path class="cls-1" d="M90.61,117.55a12.29,12.29,0,1,0-12.28-12.28,12.32,12.32,0,0,0,12.28,12.28"/><line class="cls-1" x1="264.27" y1="41.19" x2="264.27" y2="92.98"/><path class="cls-1" d="M264.27,117.55A12.29,12.29,0,1,0,252,105.27a12.3,12.3,0,0,0,12.28,12.28"/><line class="cls-1" x1="65.26" y1="147.71" x2="289.61" y2="147.71"/><line class="cls-1" x1="72.08" y1="178.99" x2="82.98" y2="178.99"/><path class="cls-1" d="M83,179a6.83,6.83,0,0,1,6.83,6.81"/><line class="cls-1" x1="89.81" y1="185.8" x2="89.81" y2="196.71"/><path class="cls-1" d="M89.81,196.71A6.85,6.85,0,0,1,83,203.53"/><line class="cls-1" x1="82.98" y1="203.53" x2="72.08" y2="203.53"/><path class="cls-1" d="M72.08,203.53a6.85,6.85,0,0,1-6.82-6.82"/><line class="cls-1" x1="65.26" y1="196.71" x2="65.26" y2="185.8"/><path class="cls-1" d="M65.26,185.8A6.83,6.83,0,0,1,72.08,179"/><line class="cls-1" x1="201.35" y1="178.99" x2="212.25" y2="178.99"/><path class="cls-1" d="M212.25,179a6.83,6.83,0,0,1,6.83,6.81"/><line class="cls-1" x1="219.08" y1="185.8" x2="219.08" y2="196.71"/><path class="cls-1" d="M219.08,196.71a6.85,6.85,0,0,1-6.83,6.82"/><line class="cls-1" x1="212.25" y1="203.53" x2="201.35" y2="203.53"/><path class="cls-1" d="M201.35,203.53a6.85,6.85,0,0,1-6.82-6.82"/><line class="cls-1" x1="194.53" y1="196.71" x2="194.53" y2="185.8"/><path class="cls-1" d="M194.53,185.8a6.83,6.83,0,0,1,6.82-6.81"/><line class="cls-1" x1="265.99" y1="178.99" x2="276.9" y2="178.99"/><path class="cls-1" d="M276.9,179a6.83,6.83,0,0,1,6.82,6.81"/><line class="cls-1" x1="283.72" y1="185.8" x2="283.72" y2="196.71"/><path class="cls-1" d="M283.72,196.71a6.85,6.85,0,0,1-6.82,6.82"/><line class="cls-1" x1="276.9" y1="203.53" x2="265.99" y2="203.53"/><path class="cls-1" d="M266,203.53a6.84,6.84,0,0,1-6.81-6.82"/><line class="cls-1" x1="259.18" y1="196.71" x2="259.18" y2="185.8"/><path class="cls-1" d="M259.18,185.8A6.82,6.82,0,0,1,266,179"/><line class="cls-1" x1="72.08" y1="242.1" x2="82.98" y2="242.1"/><path class="cls-1" d="M83,242.1a6.84,6.84,0,0,1,6.83,6.81"/><line class="cls-1" x1="89.81" y1="248.91" x2="89.81" y2="259.83"/><path class="cls-1" d="M89.81,259.83A6.84,6.84,0,0,1,83,266.64"/><line class="cls-1" x1="82.98" y1="266.64" x2="72.08" y2="266.64"/><path class="cls-1" d="M72.08,266.64a6.84,6.84,0,0,1-6.82-6.81"/><line class="cls-1" x1="65.26" y1="259.83" x2="65.26" y2="248.91"/><path class="cls-1" d="M65.26,248.91a6.84,6.84,0,0,1,6.82-6.81"/><line class="cls-1" x1="136.72" y1="242.1" x2="147.62" y2="242.1"/><path class="cls-1" d="M147.62,242.1a6.83,6.83,0,0,1,6.82,6.81"/><line class="cls-1" x1="154.44" y1="248.91" x2="154.44" y2="259.83"/><path class="cls-1" d="M154.44,259.83a6.83,6.83,0,0,1-6.82,6.81"/><line class="cls-1" x1="147.62" y1="266.64" x2="136.72" y2="266.64"/><path class="cls-1" d="M136.72,266.64a6.85,6.85,0,0,1-6.83-6.81"/><line class="cls-1" x1="129.89" y1="259.83" x2="129.89" y2="248.91"/><path class="cls-1" d="M129.89,248.91a6.85,6.85,0,0,1,6.83-6.81"/><line class="cls-1" x1="201.35" y1="242.1" x2="212.25" y2="242.1"/><path class="cls-1" d="M212.25,242.1a6.84,6.84,0,0,1,6.83,6.81"/><line class="cls-1" x1="219.08" y1="248.91" x2="219.08" y2="259.83"/><path class="cls-1" d="M219.08,259.83a6.84,6.84,0,0,1-6.83,6.81"/><line class="cls-1" x1="212.25" y1="266.64" x2="201.35" y2="266.64"/><path class="cls-1" d="M201.35,266.64a6.84,6.84,0,0,1-6.82-6.81"/><line class="cls-1" x1="194.53" y1="259.83" x2="194.53" y2="248.91"/><path class="cls-1" d="M194.53,248.91a6.84,6.84,0,0,1,6.82-6.81"/><line class="cls-1" x1="132.48" y1="189.47" x2="141.57" y2="197.81"/><line class="cls-1" x1="158.23" y1="179.61" x2="141.57" y2="197.81"/><line class="cls-1" x1="263.59" y1="252.58" x2="272.68" y2="260.92"/><line class="cls-1" x1="289.34" y1="242.72" x2="272.68" y2="260.92"/></svg>