<svg id="Layer_1" data-name="Layer 1" xmlns="http://www.w3.org/2000/svg" viewBox="0 0 360 360"><defs><style>.cls-1{fill:none;stroke:#4b5fab;stroke-linecap:round;stroke-linejoin:round;stroke-width:10px;}</style></defs><title>icons for site</title><polyline class="cls-1" points="27.63 261.11 295.09 261.11 295.09 281.69"/><path class="cls-1" d="M295.09,281.69a8.85,8.85,0,0,1-8.83,8.83"/><line class="cls-1" x1="286.26" y1="290.52" x2="34.69" y2="290.52"/><path class="cls-1" d="M34.69,290.52a7.09,7.09,0,0,1-7.06-7.07"/><line class="cls-1" x1="27.63" y1="283.45" x2="27.63" y2="261.11"/><line class="cls-1" x1="110.73" y1="120.94" x2="51.29" y2="120.94"/><path class="cls-1" d="M51.29,120.94a7.93,7.93,0,0,0-7.91,7.9"/><polyline class="cls-1" points="43.38 128.84 43.38 261.11 279.33 261.11 279.33 212.44"/><line class="cls-1" x1="203.29" y1="120.94" x2="149.7" y2="120.94"/><line class="cls-1" x1="272.95" y1="120.94" x2="225.32" y2="120.94"/><line class="cls-1" x1="279.33" y1="187.51" x2="279.33" y2="143.9"/><line class="cls-1" x1="40.61" y1="275.81" x2="127.29" y2="275.81"/><path class="cls-1" d="M251.84,277.68a1.87,1.87,0,1,0-1.88-1.86,1.87,1.87,0,0,0,1.88,1.86"/><path class="cls-1" d="M265.84,277.68a1.87,1.87,0,1,0-1.86-1.86,1.88,1.88,0,0,0,1.86,1.86"/><path class="cls-1" d="M278.69,277.68a1.87,1.87,0,1,0,0-3.73,1.87,1.87,0,0,0,0,3.73"/><path class="cls-1" d="M235,189.3a31.15,31.15,0,1,1-31.15-31.15A31.17,31.17,0,0,1,235,189.3"/><path class="cls-1" d="M225.49,66.26A21.66,21.66,0,1,1,203.83,44.6a21.65,21.65,0,0,1,21.66,21.66"/><path class="cls-1" d="M335.08,189.3a21.66,21.66,0,1,1-21.66-21.65,21.67,21.67,0,0,1,21.66,21.65"/><path class="cls-1" d="M314.9,95.2a14.55,14.55,0,1,1-14.53-14.54A14.53,14.53,0,0,1,314.9,95.2"/><path class="cls-1" d="M93,91.85A14.54,14.54,0,1,1,78.5,77.31,14.55,14.55,0,0,1,93,91.85"/><line class="cls-1" x1="229.29" y1="170.33" x2="290.79" y2="106.4"/><line class="cls-1" x1="203.83" y1="157.21" x2="203.83" y2="88.45"/><polyline class="cls-1" points="234.98 189.3 278.47 189.3 291.76 189.3"/><line class="cls-1" x1="89.47" y1="101.72" x2="177.72" y2="170.84"/></svg>