<svg xmlns="http://www.w3.org/2000/svg" viewBox="0 0 311.74 85.25"><defs><style>.cls-1{fill:#425cc7;}.cls-2{fill:#999b9e;}.cls-3{fill:#f5a800;}</style></defs><title>Asset 1</title><g id="Layer_2" data-name="Layer 2"><g id="Layer_1-2" data-name="Layer 1"><path class="cls-1" d="M121.11,31.9v2.28h-11.6v5.94H120V42.4H109.51v6.78h11.6V51.5h-14V31.9Z"/><path class="cls-1" d="M129.62,51.5h-2.57L121.76,37h2.55l4,11.58,4-11.58h2.54Z"/><path class="cls-1" d="M150.35,47a6.79,6.79,0,0,1-6.87,4.86,7.63,7.63,0,0,1-.14-15.25c3.76,0,7.38,3.1,7.35,8.27H138.46a5.1,5.1,0,0,0,5,4.8A4.49,4.49,0,0,0,147.81,47ZM148,42.71a5,5,0,0,0-4.69-4,5.06,5.06,0,0,0-4.74,4Z"/><path class="cls-1" d="M165.77,51.5H163.4V42.66c0-2.23-1.25-3.87-3.56-3.87A3.71,3.71,0,0,0,156,42.6v8.9h-2.41V37h2.32v1.58a5.38,5.38,0,0,1,4.24-1.94c3.56,0,5.59,2.54,5.59,6.15Z"/><path class="cls-1" d="M175.68,51.5c-3.38.39-5.73-1.61-5.73-5.31V39.24h-2V37h2v-3.1h2.37V37h3.31v2.29h-3.31v6.95c0,2.57,1.58,3.22,3.36,3.11Z"/><path class="cls-1" d="M187,31.9h7.26c5.43,0,8.9,3.7,8.9,9.77s-3.47,9.83-8.9,9.83H187Zm2.4,2.28v15h4.86c3.62,0,6.44-2.23,6.44-7.51s-2.85-7.49-6.44-7.49Z"/><path class="cls-1" d="M208.7,34.75h-2.4V31.9h2.4Zm0,16.75h-2.4V37h2.4Z"/><path class="cls-1" d="M218.16,51.87c-3.53,0-6.1-1.9-6.49-5h2.43c.31,1.7,2,2.75,4.06,2.75,2.26,0,3.65-1.11,3.65-2.38,0-1-.4-1.78-4-2.26s-5.67-1.35-5.67-4.09c0-2.09,1.8-4.32,5.7-4.32,3.36,0,5.62,1.69,5.93,4.54h-2.43c-.33-1.55-1.72-2.34-3.5-2.34s-3.3.9-3.3,2,.82,1.42,3.67,1.87c3.22.5,5.87,1.13,5.87,4.43C224.12,50,221.64,51.87,218.16,51.87Z"/><path class="cls-1" d="M233.42,51.84a7.63,7.63,0,0,1,0-15.25,6.94,6.94,0,0,1,6.77,4.85h-2.57a4.66,4.66,0,0,0-4.2-2.65,5.21,5.21,0,0,0-4.89,5.45,5.17,5.17,0,0,0,4.89,5.4,4.61,4.61,0,0,0,4.2-2.66h2.57A6.92,6.92,0,0,1,233.42,51.84Z"/><path class="cls-1" d="M256.63,44.27a7.32,7.32,0,1,1-14.63,0,7.32,7.32,0,1,1,14.63,0Zm-2.4,0a5.22,5.22,0,0,0-4.91-5.48c-2.69,0-4.89,2.46-4.89,5.48a4.92,4.92,0,1,0,9.8,0Z"/><path class="cls-1" d="M265.64,51.5h-2.57L257.79,37h2.54l4,11.58,4-11.58h2.55Z"/><path class="cls-1" d="M286.38,47a6.8,6.8,0,0,1-6.87,4.86,7.63,7.63,0,0,1-.14-15.25c3.76,0,7.37,3.1,7.34,8.27H274.48a5.11,5.11,0,0,0,5,4.8A4.48,4.48,0,0,0,283.83,47Zm-2.32-4.27a5,5,0,0,0-4.69-4,5,5,0,0,0-4.74,4Z"/><path class="cls-1" d="M296.71,39c-2.51-.14-4.66,1.18-4.66,4.09V51.5h-2.4V37H292v1.64a5.17,5.17,0,0,1,4.74-2Z"/><path class="cls-1" d="M305.21,54.3c-1,2.71-2.62,3.81-5.53,3.5V55.6c1.89.14,2.68-.46,3.3-2.15l.77-2L298.18,37h2.6L305,48.53,309.17,37h2.57Z"/><path class="cls-1" d="M128.83,15.24V32.55h-2.4V15.24h-6.15V13H135v2.29Z"/><path class="cls-1" d="M149.4,32.55H147V23.71c0-2.26-1.21-3.87-3.56-3.87a3.71,3.71,0,0,0-3.81,3.81v8.9h-2.4v-21h2.4v7.93a5.4,5.4,0,0,1,4.15-1.83c3.56,0,5.6,2.54,5.6,6.16Z"/><path class="cls-1" d="M166.71,28a6.78,6.78,0,0,1-6.86,4.86,7.45,7.45,0,0,1-7.46-7.6,7.5,7.5,0,0,1,7.32-7.65c3.75,0,7.37,3.11,7.34,8.27H154.82a5.11,5.11,0,0,0,5,4.81A4.48,4.48,0,0,0,164.17,28Zm-2.32-4.26a5,5,0,0,0-4.68-4,5.06,5.06,0,0,0-4.75,4Z"/><path class="cls-1" d="M166.15,75.58a10.22,10.22,0,0,1,0-20.42,9.11,9.11,0,0,1,9,6.52h-2.51a6.8,6.8,0,0,0-6.47-4.23c-4,0-7.34,3.58-7.34,7.91s3.3,7.9,7.34,7.9A7,7,0,0,0,172.62,69h2.51A9.29,9.29,0,0,1,166.15,75.58Z"/><path class="cls-1" d="M191.74,68a7.32,7.32,0,1,1-14.63,0,7.32,7.32,0,1,1,14.63,0Zm-2.4,0a5.22,5.22,0,0,0-4.91-5.48c-2.69,0-4.89,2.46-4.89,5.48a4.92,4.92,0,1,0,9.8,0Z"/><path class="cls-1" d="M215.44,75.24H213V66.17c0-2.26-1.08-3.64-3.31-3.64a3.53,3.53,0,0,0-3.41,3.81v8.9h-2.38V66.17c0-2.26-1.13-3.64-3.27-3.64a3.56,3.56,0,0,0-3.45,3.81v8.9h-2.4V60.69h2.32v1.59a4.7,4.7,0,0,1,3.86-2,4.94,4.94,0,0,1,4.5,2.48A5.09,5.09,0,0,1,210,60.33c3.37,0,5.4,2.28,5.4,5.9Z"/><path class="cls-1" d="M226.82,75.58A6.25,6.25,0,0,1,221.88,73v8.67h-2.4v-21h2.31V63a6.26,6.26,0,0,1,5-2.68,7.63,7.63,0,0,1,0,15.25Zm0-13a5.45,5.45,0,0,0,0,10.85c2.71,0,4.86-2.46,4.86-5.45A5.14,5.14,0,0,0,226.82,62.53Z"/><path class="cls-1" d="M246.93,73.57a6.19,6.19,0,0,1-5,2c-3,0-5.68-1.36-5.68-4.49s2.18-4.35,5.94-4.55c3.55-.17,4.71-.82,4.71-2s-1.1-2-3.56-2c-1.52,0-3.53.48-3.78,2.6h-2.49c.17-2.91,2.57-4.8,6.3-4.8,3.9,0,5.88,1.8,5.88,4.52v8a7.58,7.58,0,0,0,.42,2.37H247.3A4.39,4.39,0,0,1,246.93,73.57Zm0-6.15c-1,.84-2.68,1-4.4,1.15-3.17.2-3.87,1.3-3.87,2.52,0,1.58,1.52,2.26,3.39,2.26,2.48,0,4.83-1.08,4.88-3.7Z"/><path class="cls-1" d="M265.46,75.24h-2.37V66.4c0-2.23-1.25-3.87-3.56-3.87a3.71,3.71,0,0,0-3.82,3.81v8.9h-2.4V60.69h2.32v1.59a5.34,5.34,0,0,1,4.24-2c3.56,0,5.59,2.54,5.59,6.15Z"/><path class="cls-1" d="M274.5,78c-1,2.71-2.63,3.81-5.54,3.5v-2.2c1.89.14,2.68-.46,3.31-2.15l.76-2-5.57-14.47h2.6l4.24,11.58,4.15-11.58H281Z"/><polyline class="cls-1" points="85.76 74.67 85.76 70.81 85.76 45.59 71.31 45.59 71.31 70.81 46.1 70.81 46.1 85.25 71.31 85.25 74.84 85.25"/><polyline class="cls-2" points="11.09 85.25 0 85.25 0 74.67"/><polyline class="cls-3" points="11.09 85.25 14.45 85.25 39.66 85.25 39.66 70.81 14.45 70.81 14.45 45.59 0 45.59 0 70.81 0 74.67"/><polyline class="cls-1" points="0 11.66 0 14.45 0 39.66 14.45 39.66 14.45 14.45 39.66 14.45 39.66 0 14.45 0 11.09 0"/><polyline class="cls-2" points="74.84 0 85.76 0 85.76 11.66"/><polyline class="cls-3" points="74.84 0 71.31 0 46.1 0 46.1 14.45 71.31 14.45 71.31 39.66 85.76 39.66 85.76 14.45 85.76 11.66"/><path class="cls-1" d="M21.85,22.67V64.13H63.32V22.67Zm37.6,37.74H25.58V32.08H59.45Z"/><rect class="cls-1" x="39.33" y="33.53" width="7.13" height="7.13"/><rect class="cls-1" x="49.83" y="33.53" width="7.13" height="7.13"/><rect class="cls-1" x="39.33" y="42.53" width="7.13" height="7.13"/><rect class="cls-1" x="49.83" y="42.53" width="7.13" height="7.13"/><rect class="cls-1" x="39.33" y="51.52" width="7.13" height="7.13"/><rect class="cls-1" x="28.51" y="42.53" width="7.13" height="7.13"/><rect class="cls-1" x="28.51" y="51.52" width="7.13" height="7.13"/><rect class="cls-1" x="49.83" y="51.52" width="7.13" height="7.13"/></g></g></svg>